<?xml version="1.0" encoding="utf-8"?>
<!-- Generator: Adobe Illustrator 23.1.0, SVG Export Plug-In . SVG Version: 6.00 Build 0)  -->
<svg version="1.1" id="Calque_1" xmlns="http://www.w3.org/2000/svg" xmlns:xlink="http://www.w3.org/1999/xlink" x="0px" y="0px"
	 viewBox="0 0 64 64" style="enable-background:new 0 0 64 64;" xml:space="preserve">
<style type="text/css">
	.st0{fill:#C12026;}
	.st1{fill:#25509C;}
</style>
<g>
	<path class="st0" d="M18.92,12.55c0.11-0.11,0.22-0.16,0.31-0.16c0.17,0,0.28,0.15,0.28,0.33c0,0.11-0.05,0.22-0.15,0.33
		c-4.11,5.11-7.09,11.07-7.09,19.35c0,8.27,2.99,14.12,7.09,19.23c0.1,0.1,0.15,0.22,0.15,0.33c0.01,0.18-0.11,0.33-0.28,0.33
		c-0.09,0-0.2-0.05-0.31-0.16L1.43,35.2C0.56,34.45,0,33.58,0,32.34c0-1.25,0.56-2.12,1.43-2.86L18.92,12.55"/>
	<path class="st1" d="M32.37,11.12c-6.85,0-9.53,9.71-9.53,21.28c0,11.57,2.68,21.15,9.53,21.15c4.11,0,7.61-2.41,7.63-4.39
		c0-0.43-0.17-0.85-0.53-1.21c-1.95-1.88-2.71-3.76-2.72-5.42C36.74,39.36,39.49,37,42.02,37c3.49,0,5.54,2.74,5.54,6.29
		c0,3.36-1.43,6.16-2.99,8.4c-0.06,0.09-0.09,0.19-0.09,0.28c0,0.18,0.1,0.32,0.26,0.32c0.09,0,0.21-0.05,0.33-0.17l17.5-16.92
		c0.87-0.75,1.43-1.62,1.43-2.86c0-1.25-0.56-2.12-1.43-2.86l-17.5-16.92c-0.12-0.12-0.23-0.17-0.33-0.17
		c-0.16,0-0.26,0.15-0.26,0.32c0,0.09,0.03,0.19,0.09,0.29c1.56,2.24,2.99,5.04,2.99,8.4c0,3.54-2.05,6.29-5.54,6.29
		c-2.53,0-5.28-2.36-5.27-5.53c0.01-1.66,0.77-3.54,2.72-5.42c0.36-0.37,0.53-0.78,0.53-1.21C39.99,13.53,36.48,11.12,32.37,11.12z"
		/>
</g>
</svg>
