<?xml version="1.0" encoding="utf-8"?>
<!-- Generator: Adobe Illustrator 23.1.0, SVG Export Plug-In . SVG Version: 6.00 Build 0)  -->
<svg version="1.1" id="Calque_1" xmlns="http://www.w3.org/2000/svg" xmlns:xlink="http://www.w3.org/1999/xlink" x="0px" y="0px"
	 viewBox="0 0 680.9 604.39" style="enable-background:new 0 0 680.9 604.39;" xml:space="preserve">
<style type="text/css">
	.st0{fill:#C20016;}
	.st1{fill:#254F9B;}
</style>
<g>
	<path class="st0" d="M211.7,107.43c1.12-1.11,2.18-1.56,3.09-1.56c1.63,0,2.77,1.45,2.72,3.22c-0.05,1.05-0.5,2.2-1.51,3.21
		c-40.43,50.27-69.84,109.01-69.84,190.51c0,81.43,29.41,139.05,69.84,189.29c1.01,1.01,1.46,2.19,1.51,3.22
		c0.05,1.75-1.09,3.22-2.72,3.22c-0.91,0-1.96-0.45-3.09-1.57L39.47,330.41c-8.6-7.36-14.08-15.96-14.08-28.18
		c0-12.28,5.48-20.85,14.08-28.16L211.7,107.43"/>
	<path class="st1" d="M344.12,93.33c-67.44,0-93.8,95.57-93.8,209.48c0,113.94,26.36,208.24,93.8,208.24
		c40.46,0,74.95-23.7,75.07-43.18c0.01-4.26-1.63-8.35-5.21-11.91c-19.17-18.53-26.68-37.06-26.75-53.39
		c-0.11-31.2,26.97-54.45,51.91-54.45c34.31,0,54.54,26.97,54.54,61.89c0,33.07-14.12,60.65-29.44,82.7
		c-0.59,0.92-0.86,1.9-0.86,2.79c0.02,1.74,1.02,3.16,2.55,3.16c0.93,0,2.02-0.49,3.2-1.69l172.28-166.57
		c8.6-7.36,14.09-15.96,14.09-28.18c0-12.28-5.49-20.85-14.09-28.16L469.14,107.43c-1.18-1.18-2.27-1.67-3.2-1.67
		c-1.54,0-2.53,1.43-2.55,3.16c0,0.89,0.27,1.88,0.86,2.81c15.32,22.02,29.44,49.63,29.44,82.68c0,34.89-20.23,61.89-54.54,61.89
		c-24.94,0-52.02-23.23-51.91-54.45c0.07-16.35,7.58-34.87,26.75-53.38c3.58-3.6,5.22-7.66,5.21-11.92
		C419.08,117.05,384.59,93.33,344.12,93.33z"/>
</g>
</svg>
